# xmcd
#
# Track frame offsets:
#	150
#	37421
#	56572
#	78386
#	103302
#	118519
#	136338
#	152671
#	183689
#	215841
#	240874
#	264732
#	281897
#	288132
#	291372
#	310420
#	337693
#
# Disc length: 4675 seconds
#
# Revision: 0
# Processed by: cddbd v1.5.2PL0 Copyright (c) Steve Scherf et al.
# Submitted via: EasyCDDAExtractor 11.9.9.666
#
DISCID=0b124111
DTITLE=Various Artist - Fear Candy 49
DYEAR=2007
DGENRE=Metal
TTITLE0=Electric Wizard  - The Chosen Few
TTITLE1=Nifelheim - Storm Of The Reaper
TTITLE2=Endstille - Among Our Glorious Existence
TTITLE3=Atavist - 5.32
TTITLE4=Hermano - Kentucky
TTITLE5=Devilish Impressions - T.H.O.R.N.S
TTITLE6=Among The Missing - 95% Concentrate
TTITLE7=Inner Rage - Disarray
TTITLE8=Lazarus Blackstar - Final Restraining Order
TTITLE9=Adastreia - The Reach
TTITLE10=Strangers - Overborn
TTITLE11=Ebolie - 1800 Fashioncore Kids Helpline
TTITLE12=Shipwreck A.D. - Erebos
TTITLE13=Pulling Teeth - Dead Is Dead
TTITLE14=Wako - Abyss
TTITLE15=Broken Faith - Desecrate
TTITLE16=Soul Destroyer - Crackpipe Limousine
EXTD=
EXTT0=
EXTT1=
EXTT2=
EXTT3=
EXTT4=
EXTT5=
EXTT6=
EXTT7=
EXTT8=
EXTT9=
EXTT10=
EXTT11=
EXTT12=
EXTT13=
EXTT14=
EXTT15=
EXTT16=
PLAYORDER=
